<mxfile host="Electron" agent="Mozilla/5.0 (Macintosh; Intel Mac OS X 10_15_7) AppleWebKit/537.36 (KHTML, like Gecko) draw.io/26.2.15 Chrome/134.0.6998.205 Electron/35.2.1 Safari/537.36" version="26.2.15">
  <diagram name="Page-1" id="mroiT63CZjKvfq4GH1ni">
    <mxGraphModel dx="1426" dy="946" grid="1" gridSize="10" guides="1" tooltips="1" connect="1" arrows="1" fold="1" page="1" pageScale="1" pageWidth="1600" pageHeight="900" math="0" shadow="0">
      <root>
        <mxCell id="0" />
        <mxCell id="1" parent="0" />
        <mxCell id="OpHUvcLUvjaBLlXCdeV8-2" value="[GET] /api/v1/game-session/{sessionId}/player-info" style="html=1;verticalAlign=bottom;endArrow=block;curved=0;rounded=0;entryX=1;entryY=0;entryDx=0;entryDy=5;entryPerimeter=0;" parent="1" source="AjLaAYhOVXo9awgu1j2c-1" target="OpHUvcLUvjaBLlXCdeV8-1" edge="1">
          <mxGeometry x="0.0037" width="80" relative="1" as="geometry">
            <mxPoint x="1040" y="300" as="sourcePoint" />
            <mxPoint x="780" y="300" as="targetPoint" />
            <mxPoint as="offset" />
          </mxGeometry>
        </mxCell>
        <mxCell id="5L9l9y6EKOVZmygb9h6w-1" value="Alea Transaction API" style="shape=umlLifeline;perimeter=lifelinePerimeter;whiteSpace=wrap;html=1;container=1;dropTarget=0;collapsible=0;recursiveResize=0;outlineConnect=0;portConstraint=eastwest;newEdgeStyle={&quot;curved&quot;:0,&quot;rounded&quot;:0};fillColor=#dae8fc;strokeColor=#000000;" parent="1" vertex="1">
          <mxGeometry x="1210" y="160" width="130" height="590" as="geometry" />
        </mxCell>
        <mxCell id="3Ufl6S7H8RnrfwkGAg7C-1" value="" style="html=1;points=[[0,0,0,0,5],[0,1,0,0,-5],[1,0,0,0,5],[1,1,0,0,-5]];perimeter=orthogonalPerimeter;outlineConnect=0;targetShapes=umlLifeline;portConstraint=eastwest;newEdgeStyle={&quot;curved&quot;:0,&quot;rounded&quot;:0};fillColor=#f8cecc;strokeColor=#b85450;" parent="5L9l9y6EKOVZmygb9h6w-1" vertex="1">
          <mxGeometry x="60" y="80" width="10" height="490" as="geometry" />
        </mxCell>
        <mxCell id="3Ufl6S7H8RnrfwkGAg7C-8" value="Authenticate" style="shape=umlFrame;whiteSpace=wrap;html=1;pointerEvents=0;width=100;height=50;fillColor=#ffe6cc;strokeColor=#000000;" parent="1" vertex="1">
          <mxGeometry x="280" y="80" width="1100" height="710" as="geometry" />
        </mxCell>
        <mxCell id="aNWD6McwFUx8yWugI5Fw-1" value="[GET] /sessions/{casinoSessionId}" style="html=1;verticalAlign=bottom;endArrow=block;curved=0;rounded=0;entryX=1;entryY=0;entryDx=0;entryDy=5;entryPerimeter=0;" parent="1" source="3Ufl6S7H8RnrfwkGAg7C-1" target="AjLaAYhOVXo9awgu1j2c-1" edge="1">
          <mxGeometry width="80" relative="1" as="geometry">
            <mxPoint x="1270" y="240" as="sourcePoint" />
            <mxPoint x="1010" y="245" as="targetPoint" />
          </mxGeometry>
        </mxCell>
        <mxCell id="aNWD6McwFUx8yWugI5Fw-2" value="AleaAuthenticateResponse" style="html=1;verticalAlign=bottom;endArrow=open;dashed=1;endSize=8;curved=0;rounded=0;exitX=1;exitY=1;exitDx=0;exitDy=-5;exitPerimeter=0;" parent="1" source="AjLaAYhOVXo9awgu1j2c-1" target="3Ufl6S7H8RnrfwkGAg7C-1" edge="1">
          <mxGeometry relative="1" as="geometry">
            <mxPoint x="1030" y="520" as="sourcePoint" />
            <mxPoint x="1260" y="520" as="targetPoint" />
            <mxPoint as="offset" />
          </mxGeometry>
        </mxCell>
        <mxCell id="OpHUvcLUvjaBLlXCdeV8-3" value="GameSessionPlayerInfoRestResponse" style="html=1;verticalAlign=bottom;endArrow=open;dashed=1;endSize=8;curved=0;rounded=0;exitX=1;exitY=1;exitDx=0;exitDy=-5;exitPerimeter=0;" parent="1" source="OpHUvcLUvjaBLlXCdeV8-1" target="AjLaAYhOVXo9awgu1j2c-1" edge="1">
          <mxGeometry relative="1" as="geometry">
            <mxPoint x="820" y="460" as="sourcePoint" />
            <mxPoint x="980" y="485" as="targetPoint" />
          </mxGeometry>
        </mxCell>
        <mxCell id="3UZowmz1lyf7BuVDYvQ6-1" value="player-service" style="shape=umlLifeline;perimeter=lifelinePerimeter;whiteSpace=wrap;html=1;container=1;dropTarget=0;collapsible=0;recursiveResize=0;outlineConnect=0;portConstraint=eastwest;newEdgeStyle={&quot;curved&quot;:0,&quot;rounded&quot;:0};fillColor=#d5e8d4;strokeColor=#000000;" parent="1" vertex="1">
          <mxGeometry x="320" y="160" width="100" height="590" as="geometry" />
        </mxCell>
        <mxCell id="3UZowmz1lyf7BuVDYvQ6-3" value="" style="html=1;points=[[0,0,0,0,5],[0,1,0,0,-5],[1,0,0,0,5],[1,1,0,0,-5]];perimeter=orthogonalPerimeter;outlineConnect=0;targetShapes=umlLifeline;portConstraint=eastwest;newEdgeStyle={&quot;curved&quot;:0,&quot;rounded&quot;:0};fillColor=#f8cecc;strokeColor=#b85450;" parent="3UZowmz1lyf7BuVDYvQ6-1" vertex="1">
          <mxGeometry x="45" y="180" width="10" height="50" as="geometry" />
        </mxCell>
        <mxCell id="3UZowmz1lyf7BuVDYvQ6-4" value="" style="html=1;points=[[0,0,0,0,5],[0,1,0,0,-5],[1,0,0,0,5],[1,1,0,0,-5]];perimeter=orthogonalPerimeter;outlineConnect=0;targetShapes=umlLifeline;portConstraint=eastwest;newEdgeStyle={&quot;curved&quot;:0,&quot;rounded&quot;:0};fillColor=#f8cecc;strokeColor=#b85450;" parent="3UZowmz1lyf7BuVDYvQ6-1" vertex="1">
          <mxGeometry x="45" y="300" width="10" height="50" as="geometry" />
        </mxCell>
        <mxCell id="3UZowmz1lyf7BuVDYvQ6-2" value="wallet-service" style="shape=umlLifeline;perimeter=lifelinePerimeter;whiteSpace=wrap;html=1;container=1;dropTarget=0;collapsible=0;recursiveResize=0;outlineConnect=0;portConstraint=eastwest;newEdgeStyle={&quot;curved&quot;:0,&quot;rounded&quot;:0};fillColor=#d5e8d4;strokeColor=#000000;" parent="1" vertex="1">
          <mxGeometry x="460" y="160" width="100" height="590" as="geometry" />
        </mxCell>
        <mxCell id="3UZowmz1lyf7BuVDYvQ6-5" value="" style="html=1;points=[[0,0,0,0,5],[0,1,0,0,-5],[1,0,0,0,5],[1,1,0,0,-5]];perimeter=orthogonalPerimeter;outlineConnect=0;targetShapes=umlLifeline;portConstraint=eastwest;newEdgeStyle={&quot;curved&quot;:0,&quot;rounded&quot;:0};fillColor=#f8cecc;strokeColor=#b85450;" parent="3UZowmz1lyf7BuVDYvQ6-2" vertex="1">
          <mxGeometry x="45" y="420" width="10" height="50" as="geometry" />
        </mxCell>
        <mxCell id="3UZowmz1lyf7BuVDYvQ6-6" value="[GET] /api/v1/player/{playerId}" style="html=1;verticalAlign=bottom;endArrow=block;curved=0;rounded=0;entryX=1;entryY=0;entryDx=0;entryDy=5;entryPerimeter=0;" parent="1" source="OpHUvcLUvjaBLlXCdeV8-1" target="3UZowmz1lyf7BuVDYvQ6-3" edge="1">
          <mxGeometry x="-0.001" width="80" relative="1" as="geometry">
            <mxPoint x="720" y="275" as="sourcePoint" />
            <mxPoint x="590" y="290" as="targetPoint" />
            <mxPoint as="offset" />
          </mxGeometry>
        </mxCell>
        <mxCell id="3UZowmz1lyf7BuVDYvQ6-7" value="[GET]&amp;nbsp;/api/v1/player/{playerId}/address" style="html=1;verticalAlign=bottom;endArrow=block;curved=0;rounded=0;entryX=1;entryY=0;entryDx=0;entryDy=5;entryPerimeter=0;" parent="1" source="OpHUvcLUvjaBLlXCdeV8-1" target="3UZowmz1lyf7BuVDYvQ6-4" edge="1">
          <mxGeometry width="80" relative="1" as="geometry">
            <mxPoint x="720" y="355" as="sourcePoint" />
            <mxPoint x="585" y="359.85" as="targetPoint" />
          </mxGeometry>
        </mxCell>
        <mxCell id="3UZowmz1lyf7BuVDYvQ6-8" value="[GET]&amp;nbsp;/api/v1/wallet/{walletId}" style="html=1;verticalAlign=bottom;endArrow=block;curved=0;rounded=0;entryX=1;entryY=0;entryDx=0;entryDy=5;entryPerimeter=0;" parent="1" source="OpHUvcLUvjaBLlXCdeV8-1" target="3UZowmz1lyf7BuVDYvQ6-5" edge="1">
          <mxGeometry x="0.0018" width="80" relative="1" as="geometry">
            <mxPoint x="700" y="450" as="sourcePoint" />
            <mxPoint x="550" y="450" as="targetPoint" />
            <mxPoint as="offset" />
          </mxGeometry>
        </mxCell>
        <mxCell id="3UZowmz1lyf7BuVDYvQ6-9" value="PlayerRestResponse" style="html=1;verticalAlign=bottom;endArrow=open;dashed=1;endSize=8;curved=0;rounded=0;exitX=1;exitY=1;exitDx=0;exitDy=-5;exitPerimeter=0;" parent="1" source="3UZowmz1lyf7BuVDYvQ6-3" target="OpHUvcLUvjaBLlXCdeV8-1" edge="1">
          <mxGeometry relative="1" as="geometry">
            <mxPoint x="590" y="310" as="sourcePoint" />
            <mxPoint x="850" y="310" as="targetPoint" />
            <mxPoint as="offset" />
          </mxGeometry>
        </mxCell>
        <mxCell id="3UZowmz1lyf7BuVDYvQ6-10" value="PlayerAddressRestResponse" style="html=1;verticalAlign=bottom;endArrow=open;dashed=1;endSize=8;curved=0;rounded=0;exitX=1;exitY=1;exitDx=0;exitDy=-5;exitPerimeter=0;" parent="1" source="3UZowmz1lyf7BuVDYvQ6-4" target="OpHUvcLUvjaBLlXCdeV8-1" edge="1">
          <mxGeometry x="-0.0016" relative="1" as="geometry">
            <mxPoint x="585" y="400" as="sourcePoint" />
            <mxPoint x="735" y="400" as="targetPoint" />
            <mxPoint as="offset" />
          </mxGeometry>
        </mxCell>
        <mxCell id="3UZowmz1lyf7BuVDYvQ6-11" value="WalletRestResponse" style="html=1;verticalAlign=bottom;endArrow=open;dashed=1;endSize=8;curved=0;rounded=0;exitX=1;exitY=1;exitDx=0;exitDy=-5;exitPerimeter=0;" parent="1" source="3UZowmz1lyf7BuVDYvQ6-5" target="OpHUvcLUvjaBLlXCdeV8-1" edge="1">
          <mxGeometry relative="1" as="geometry">
            <mxPoint x="520" y="480" as="sourcePoint" />
            <mxPoint x="670" y="480" as="targetPoint" />
          </mxGeometry>
        </mxCell>
        <mxCell id="d-SwlGP94KBxS6JhO7Ii-2" value="" style="group" parent="1" vertex="1" connectable="0">
          <mxGeometry x="890" y="160" width="220" height="590" as="geometry" />
        </mxCell>
        <mxCell id="U6ja7azg0rl6jPES7cRg-1" value="game-provider-integration-service-alea" style="shape=umlLifeline;perimeter=lifelinePerimeter;whiteSpace=wrap;html=1;container=1;dropTarget=0;collapsible=0;recursiveResize=0;outlineConnect=0;portConstraint=eastwest;newEdgeStyle={&quot;curved&quot;:0,&quot;rounded&quot;:0};fillColor=#d5e8d4;strokeColor=#000000;" parent="d-SwlGP94KBxS6JhO7Ii-2" vertex="1">
          <mxGeometry width="220" height="590" as="geometry" />
        </mxCell>
        <mxCell id="AjLaAYhOVXo9awgu1j2c-1" value="" style="html=1;points=[[0,0,0,0,5],[0,1,0,0,-5],[1,0,0,0,5],[1,1,0,0,-5]];perimeter=orthogonalPerimeter;outlineConnect=0;targetShapes=umlLifeline;portConstraint=eastwest;newEdgeStyle={&quot;curved&quot;:0,&quot;rounded&quot;:0};fillColor=#f8cecc;strokeColor=#b85450;" parent="U6ja7azg0rl6jPES7cRg-1" vertex="1">
          <mxGeometry x="105" y="90" width="10" height="470" as="geometry" />
        </mxCell>
        <mxCell id="TiuTMVL-epMFY8sRjVYI-1" value="&lt;font style=&quot;font-size: 10px;&quot;&gt;Validate Signature&lt;/font&gt;" style="rounded=1;whiteSpace=wrap;html=1;fillColor=#fff2cc;strokeColor=#d6b656;" parent="d-SwlGP94KBxS6JhO7Ii-2" vertex="1">
          <mxGeometry x="55" y="120" width="110" height="30" as="geometry" />
        </mxCell>
        <mxCell id="d-SwlGP94KBxS6JhO7Ii-3" value="" style="group" parent="1" vertex="1" connectable="0">
          <mxGeometry x="620" y="160" width="170" height="590" as="geometry" />
        </mxCell>
        <mxCell id="_vB63nb62DnKwnehX2wS-1" value="casino-transaction-service" style="shape=umlLifeline;perimeter=lifelinePerimeter;whiteSpace=wrap;html=1;container=1;dropTarget=0;collapsible=0;recursiveResize=0;outlineConnect=0;portConstraint=eastwest;newEdgeStyle={&quot;curved&quot;:0,&quot;rounded&quot;:0};fillColor=#d5e8d4;strokeColor=#000000;" parent="d-SwlGP94KBxS6JhO7Ii-3" vertex="1">
          <mxGeometry width="170" height="590" as="geometry" />
        </mxCell>
        <mxCell id="OpHUvcLUvjaBLlXCdeV8-1" value="" style="html=1;points=[[0,0,0,0,5],[0,1,0,0,-5],[1,0,0,0,5],[1,1,0,0,-5]];perimeter=orthogonalPerimeter;outlineConnect=0;targetShapes=umlLifeline;portConstraint=eastwest;newEdgeStyle={&quot;curved&quot;:0,&quot;rounded&quot;:0};fillColor=#f8cecc;strokeColor=#b85450;" parent="d-SwlGP94KBxS6JhO7Ii-3" vertex="1">
          <mxGeometry x="79.33666666666667" y="170" width="11.333333333333332" height="380" as="geometry" />
        </mxCell>
        <mxCell id="TiuTMVL-epMFY8sRjVYI-2" value="&lt;font style=&quot;font-size: 10px;&quot;&gt;Validate Profile&lt;/font&gt;" style="rounded=1;whiteSpace=wrap;html=1;fillColor=#fff2cc;strokeColor=#d6b656;" parent="d-SwlGP94KBxS6JhO7Ii-3" vertex="1">
          <mxGeometry x="22.67" y="250" width="124.66666666666666" height="30" as="geometry" />
        </mxCell>
        <mxCell id="z7XIY7CTH8DSJ5zFvKcH-1" value="&lt;font style=&quot;font-size: 10px;&quot;&gt;Validate Profile Address&lt;/font&gt;" style="rounded=1;whiteSpace=wrap;html=1;fillColor=#fff2cc;strokeColor=#d6b656;" parent="d-SwlGP94KBxS6JhO7Ii-3" vertex="1">
          <mxGeometry x="14.17" y="370" width="141.66666666666666" height="30" as="geometry" />
        </mxCell>
        <mxCell id="z7XIY7CTH8DSJ5zFvKcH-2" value="&lt;font style=&quot;font-size: 10px;&quot;&gt;Validate Wallet&lt;/font&gt;" style="rounded=1;whiteSpace=wrap;html=1;fillColor=#fff2cc;strokeColor=#d6b656;" parent="d-SwlGP94KBxS6JhO7Ii-3" vertex="1">
          <mxGeometry x="14.17" y="490" width="141.66666666666666" height="30" as="geometry" />
        </mxCell>
      </root>
    </mxGraphModel>
  </diagram>
</mxfile>
